PathFileType	4	(X/Y/Z)	44_1_tpose_p1_0-229_filt_butterworth.trc
DataRate	CameraRate	NumFrames	NumMarkers	Units	OrigDataRate	OrigDataStartFrame	OrigNumFrames
59.0	59.0	5	27	m	59.0	85	229
Frame#	Time	RHip			RKnee			RAnkle			RBigToe			RSmallToe			RHeel			LHip			LKnee			LAnkle			LBigToe			LSmallToe			LHeel			Neck			Head			Nose			RShoulder			RElbow			RWrist			RThumb			RIndex			RPinky			LShoulder			LElbow			LWrist			LThumb			LIndex			LPinky			
		X1	Y1	Z1	X2	Y2	Z2	X3	Y3	Z3	X4	Y4	Z4	X5	Y5	Z5	X6	Y6	Z6	X7	Y7	Z7	X8	Y8	Z8	X9	Y9	Z9	X10	Y10	Z10	X11	Y11	Z11	X12	Y12	Z12	X13	Y13	Z13	X14	Y14	Z14	X15	Y15	Z15	X16	Y16	Z16	X17	Y17	Z17	X18	Y18	Z18	X19	Y19	Z19	X20	Y20	Z20	X21	Y21	Z21	X22	Y22	Z22	X23	Y23	Z23	X24	Y24	Z24	X25	Y25	Z25	X26	Y26	Z26	X27	Y27	Z27	
85	1.4406779661016949	0.3358314928535155	0.41964223389485095	1.0079756260059547	0.35109867723538224	0.5562646979522833	1.4666844223304303	0.3350387406340131	0.6358992965000956	1.8581718396696845	0.31156397659913393	0.49910693631822584	1.9095516120139446	0.3821385415993472	0.5033002831196384	1.901934767477594	0.30697246370784786	0.7313791708073686	1.9324870435872326	0.14438722890749875	0.423792949096763	1.0108829360776155	0.11281276401631388	0.5297374351878811	1.4507894681019682	0.10759761281587255	0.6476577592335792	1.873104312021183	0.15852892343138703	0.46043181434585356	1.8942586506684376	0.09475036763015311	0.49892470972501823	1.897312852098679	0.09884128362826766	0.7480093470670566	1.941244020373312	0.22074893341631535	0.3510541427375203	0.4873528982399233	0.2127749380802728	0.26932728588112825	0.26400674429739845	0.22358457277052637	0.20916749612544594	0.3845756387060984	0.3769383432704557	0.3819969403707031	0.5275233394739866	0.6113063082517697	0.421957615995341	0.5287355842985517	0.8353521711746331	0.3919797913591089	0.5457898140388993	0.959385608986857	0.3310610270525876	0.5523530362946631	0.9906378564342813	0.3531496603115102	0.5554126962967328	0.96314154146307	0.39497347551667283	0.5707071532996973	0.05522284302884439	0.3791855482074883	0.5503514962400334	-0.18481542959733613	0.38065991203631766	0.575927472397389	-0.40467586673352435	0.3793322195430376	0.554465378381382	-0.48057901254874025	0.3951718147083446	0.5576076149119572	-0.5012375922521646	0.3906592924306867	0.5307241052460419	-0.49471258555325504	0.39926698710435427	0.5422008609151108
86	1.4576271186440677	0.33587378476873625	0.42143398670046295	1.0085775024550439	0.35006227080497004	0.5603609519657764	1.4659968241722041	0.33510334690906685	0.6358579035933476	1.858126713546448	0.3118293194797505	0.49897683462019954	1.9072865365361398	0.38214177293867185	0.5032475154638515	1.9019116838068848	0.30699037587692424	0.7313404798541105	1.9325044845454886	0.14431744795154072	0.42354736409721094	1.01115445613154	0.11290277699677569	0.5298938616609794	1.4509618713568628	0.10764345715991408	0.6477543697126691	1.8732921617568397	0.15783031098687597	0.46139054685298964	1.8952216278005412	0.09543365101726883	0.4991824430773588	1.8972520727526851	0.09883380669195663	0.7481973766673815	1.9412437136169869	0.22071750565433262	0.3507099678602362	0.4857521228280892	0.2127387642823778	0.2694855464378954	0.2640278307413048	0.22353430579615105	0.2087824012934202	0.3836513161671031	0.37695802034346243	0.38198649287675	0.5275309044152559	0.611295733801253	0.42192103030902395	0.5287325603506496	0.8350501863609656	0.387655275096044	0.5437613235431016	0.9582695142749738	0.3248441888446203	0.5521746920915318	0.9887529105490809	0.34940996701554533	0.5545884654709954	0.9607998444191632	0.38904492355733405	0.5711580962119891	0.05528568230052233	0.37897761199698404	0.5503788056465014	-0.18268043599578188	0.3801739331219167	0.5756318650885509	-0.40332851254574587	0.3799903726782592	0.5548006514075755	-0.4800676587652517	0.39589834854052514	0.5575719310648255	-0.4999186468851878	0.38848782339812	0.5316882231558634	-0.49550455542028815	0.3999620125030807	0.542292057696849
87	1.4745762711864407	0.33594771353259023	0.42223631780113124	1.0096767289417843	0.3497559706760253	0.5621556227263562	1.4667029471665363	0.3351305925957616	0.6358093219147918	1.8581052820364725	0.3121967747764228	0.49851433736645034	1.9066195735935205	0.38218396264753984	0.503173312250373	1.9019015519460816	0.30691897501426396	0.7312839717969174	1.932510030259131	0.14343143943823963	0.4229034586393132	1.0119433684069947	0.1130030994419251	0.5299550914165653	1.4522678459293121	0.10778578793554773	0.647327068340072	1.8730183064263022	0.15667177784736916	0.46075846776581086	1.89505189438899	0.09539250350164223	0.49882078971838184	1.8969130729215697	0.09884979361893387	0.748295857668117	1.9412310341136167	0.22063156828001357	0.3503418535057009	0.48388721790262407	0.21275395637987402	0.2695364144758915	0.264049537891929	0.22353845873491673	0.20862464221474644	0.38328247897153495	0.37697376287951806	0.3820321582879428	0.5275315850238418	0.6113066632104297	0.4218608500526926	0.5287334324290158	0.8344990421195043	0.38585715970097656	0.5417819540870972	0.9567057397151901	0.3204082189693081	0.552717180891994	0.9844732724614729	0.34002712844614535	0.553764402440451	0.9574826461715104	0.3826553431684274	0.5717265403213031	0.055280720819610045	0.3789289244934285	0.5503618529653053	-0.1811223823577099	0.37958187117630215	0.5753442891719122	-0.40210703957827143	0.3780982081507521	0.5546194375333511	-0.47991787991981727	0.39585693771766745	0.5571463034618525	-0.49915752508722766	0.3848066410229967	0.5318579765877617	-0.49660353259744017	0.40017514265922494	0.5424718848193372
88	1.4915254237288136	0.3360351803914904	0.42103326795055684	1.0111589271694097	0.3500372943713134	0.5628281198417089	1.4698302963110101	0.3351330864319281	0.6357564917120921	1.858125730572299	0.31251907303686755	0.4978477532509578	1.907380361392753	0.3822523558030525	0.503143038541062	1.9019140082674428	0.30681972114117995	0.7312357013274431	1.9324974741125902	0.14170803421971964	0.42210471623819734	1.0130454922661094	0.113256186104451	0.5302907962052488	1.4550104778162174	0.10788239527173937	0.6470870865273906	1.8726816316966	0.15606860292640676	0.46009410451272625	1.8946625324105326	0.09521478322632272	0.498500373659118	1.8966916977851838	0.0988683593971593	0.7483494015534656	1.9411983868673888	0.22052684646572213	0.3500982587126301	0.4824153299568853	0.21278104441859583	0.2695278705627542	0.2640601811450618	0.2235669363123049	0.20858604581213022	0.3832761565461553	0.37697684449065566	0.3820694621070596	0.5275335554185231	0.6113699584042217	0.42179592418987577	0.5287400699381023	0.8340984053993779	0.38706864885424697	0.5405854745817519	0.9554062174367346	0.3173706226452147	0.5540100141838578	0.9786592114670578	0.32525749979939017	0.5530760516793467	0.9549909012117372	0.3771544566109821	0.5724643414920763	0.055260538926712996	0.3789489436560472	0.5503461330108128	-0.18064791626078075	0.37953034669727853	0.5752309295304762	-0.40132241117804757	0.3761475069880804	0.554407298175809	-0.4798096888305623	0.395523854636421	0.556842732638474	-0.49841232643568933	0.38210470209950587	0.5317380022870366	-0.49715082139475686	0.399914286932491	0.5428417115560844
89	1.5084745762711864	0.3360940039763951	0.4189739019003096	1.0122405077526817	0.3505179778118829	0.5634730755484023	1.4736964261387033	0.33512800890875827	0.6356906305359951	1.8581527324765925	0.31270984362112664	0.49732949015340716	1.908351368269316	0.3823034432705311	0.5032286223580701	1.9019544662487728	0.30675083490206545	0.7311985115123389	1.9324626714071582	0.14006952438979184	0.42131028375554813	1.013921348662484	0.11357894321149341	0.530817292116591	1.4579360522087308	0.107940542018437	0.647075485820311	1.8721175319251633	0.15600826415019708	0.45986604714884644	1.8944574631615638	0.0951330586508409	0.49838976297444315	1.8966789662440475	0.09888199271004128	0.7483694237373775	1.941134213390653	0.2204317278229368	0.34992104427048404	0.48174256070902094	0.21279486290296712	0.26950790492246135	0.264056643472918	0.22358621479232282	0.20856512518969827	0.3833631095282232	0.37696273510004574	0.3820597628047431	0.5275374683764606	0.6114539804334164	0.4218270902528856	0.5287496877775048	0.833938845558579	0.3911937583873464	0.5403252219527445	0.9544255649483285	0.3151897932602156	0.5556536564052885	0.9734936876673698	0.3102792005399058	0.5530404302766705	0.9542631664588024	0.37440251271175556	0.5733504969544863	0.05524541172672609	0.3789782502329797	0.5503433283125205	-0.1813037392917257	0.38095349426249153	0.5753359773020507	-0.40099332389442194	0.37405454744851896	0.5542585156480475	-0.4796534718794685	0.39506565523521037	0.5567074089025	-0.49769881577186353	0.3807938138149356	0.5315069400898839	-0.49704315116256903	0.3989359336855733	0.5430037300155022
